<svg xmlns="http://www.w3.org/2000/svg" width="30" height="30" viewBox="0 0 24 24" fill="none" class="injected-svg" data-src="https://cdn.hugeicons.com/icons/music-3-solid-sharp.svg?v=1.0.0" xmlns:xlink="http://www.w3.org/1999/xlink" role="img" color="#000000">
<path d="M22.0001 16.09C22.0001 18.2991 20.2092 20.09 18.0001 20.09C15.791 20.09 14.0001 18.2991 14.0001 16.09C14.0001 13.8808 15.791 12.09 18.0001 12.09C18.7289 12.09 19.4117 12.2856 20.0001 12.6261V4.27063L10.0001 5.93762V18.09C10.0001 20.2991 8.20924 22.09 6.0001 22.09C3.79096 22.09 2.0001 20.2991 2.0001 18.09C2.0001 15.8808 3.79096 14.09 6.0001 14.09C6.72885 14.09 7.41165 14.2856 8.0001 14.6261V4.24426L22.0001 1.91028V16.09Z" fill="#000000"></path>
</svg>